<mxfile host="app.diagrams.net" modified="2023-01-28T09:46:28.214Z" agent="5.0 (Windows NT 10.0; Win64; x64) AppleWebKit/537.36 (KHTML, like Gecko) Chrome/109.0.0.0 Safari/537.36" etag="j07v8cmQonnP_KJ0EfAd" version="20.8.13" type="github">
  <diagram name="Page-1" id="qwo-C3EHSbARFuV5CuQo">
    <mxGraphModel dx="1050" dy="637" grid="1" gridSize="10" guides="1" tooltips="1" connect="1" arrows="1" fold="1" page="1" pageScale="1" pageWidth="827" pageHeight="1169" math="0" shadow="0">
      <root>
        <mxCell id="0" />
        <mxCell id="1" parent="0" />
        <mxCell id="nGTOD8HpR3BOAdz-X5RT-5" style="edgeStyle=orthogonalEdgeStyle;rounded=0;orthogonalLoop=1;jettySize=auto;html=1;exitX=1;exitY=0.5;exitDx=0;exitDy=0;" edge="1" parent="1" source="nGTOD8HpR3BOAdz-X5RT-1" target="nGTOD8HpR3BOAdz-X5RT-3">
          <mxGeometry relative="1" as="geometry" />
        </mxCell>
        <mxCell id="nGTOD8HpR3BOAdz-X5RT-7" style="edgeStyle=orthogonalEdgeStyle;rounded=0;orthogonalLoop=1;jettySize=auto;html=1;exitX=1;exitY=0.5;exitDx=0;exitDy=0;entryX=0;entryY=0.5;entryDx=0;entryDy=0;entryPerimeter=0;" edge="1" parent="1" source="nGTOD8HpR3BOAdz-X5RT-1" target="nGTOD8HpR3BOAdz-X5RT-2">
          <mxGeometry relative="1" as="geometry" />
        </mxCell>
        <mxCell id="nGTOD8HpR3BOAdz-X5RT-1" value="api" style="ellipse;whiteSpace=wrap;html=1;aspect=fixed;" vertex="1" parent="1">
          <mxGeometry x="130" y="210" width="90" height="90" as="geometry" />
        </mxCell>
        <mxCell id="nGTOD8HpR3BOAdz-X5RT-2" value="EventStoreDB" style="shape=cylinder3;whiteSpace=wrap;html=1;boundedLbl=1;backgroundOutline=1;size=15;" vertex="1" parent="1">
          <mxGeometry x="330" y="300" width="100" height="80" as="geometry" />
        </mxCell>
        <mxCell id="nGTOD8HpR3BOAdz-X5RT-3" value="pubsub" style="shape=step;perimeter=stepPerimeter;whiteSpace=wrap;html=1;fixedSize=1;" vertex="1" parent="1">
          <mxGeometry x="320" y="170" width="120" height="40" as="geometry" />
        </mxCell>
        <mxCell id="nGTOD8HpR3BOAdz-X5RT-9" value="" style="rounded=0;whiteSpace=wrap;html=1;" vertex="1" parent="1">
          <mxGeometry x="110" y="120" width="580" height="370" as="geometry" />
        </mxCell>
      </root>
    </mxGraphModel>
  </diagram>
</mxfile>
